<svg width="90" height="33" viewBox="0 0 90 33" fill="none" xmlns="http://www.w3.org/2000/svg">
<path d="M28.0885 31.652C27.2145 31.652 26.3722 31.5507 25.5615 31.348C24.7635 31.1327 24.1302 30.8667 23.6615 30.55L24.6495 28.422C25.1182 28.7133 25.6692 28.954 26.3025 29.144C26.9485 29.3213 27.5819 29.41 28.2025 29.41C28.8865 29.41 29.3679 29.3277 29.6465 29.163C29.9379 28.9983 30.0835 28.7703 30.0835 28.479C30.0835 28.2383 29.9695 28.061 29.7415 27.947C29.5262 27.8203 29.2349 27.7253 28.8675 27.662C28.5002 27.5987 28.0949 27.5353 27.6515 27.472C27.2209 27.4087 26.7839 27.3263 26.3405 27.225C25.8972 27.111 25.4919 26.9463 25.1245 26.731C24.7572 26.5157 24.4595 26.2243 24.2315 25.857C24.0162 25.4897 23.9085 25.0147 23.9085 24.432C23.9085 23.786 24.0922 23.216 24.4595 22.722C24.8395 22.228 25.3842 21.8417 26.0935 21.563C26.8029 21.2717 27.6515 21.126 28.6395 21.126C29.3362 21.126 30.0455 21.202 30.7675 21.354C31.4895 21.506 32.0912 21.7277 32.5725 22.019L31.5845 24.128C31.0905 23.8367 30.5902 23.6403 30.0835 23.539C29.5895 23.425 29.1082 23.368 28.6395 23.368C27.9809 23.368 27.4995 23.4567 27.1955 23.634C26.8915 23.8113 26.7395 24.0393 26.7395 24.318C26.7395 24.5713 26.8472 24.7613 27.0625 24.888C27.2905 25.0147 27.5882 25.116 27.9555 25.192C28.3229 25.268 28.7219 25.3377 29.1525 25.401C29.5959 25.4517 30.0392 25.534 30.4825 25.648C30.9259 25.762 31.3249 25.9267 31.6795 26.142C32.0469 26.3447 32.3445 26.6297 32.5725 26.997C32.8005 27.3517 32.9145 27.8203 32.9145 28.403C32.9145 29.0363 32.7245 29.6 32.3445 30.094C31.9645 30.5753 31.4135 30.9553 30.6915 31.234C29.9822 31.5127 29.1145 31.652 28.0885 31.652ZM40.0633 31.652C38.8599 31.652 37.9226 31.348 37.2513 30.74C36.5799 30.1193 36.2443 29.201 36.2443 27.985V19.017H39.2083V27.947C39.2083 28.3777 39.3223 28.7133 39.5503 28.954C39.7783 29.182 40.0886 29.296 40.4813 29.296C40.9499 29.296 41.3489 29.1693 41.6783 28.916L42.4763 31.006C42.1723 31.2213 41.8049 31.386 41.3743 31.5C40.9563 31.6013 40.5193 31.652 40.0633 31.652ZM34.6673 23.786V21.506H41.7543V23.786H34.6673ZM49.8287 31.652C48.7393 31.652 47.7703 31.424 46.9217 30.968C46.0857 30.512 45.4207 29.8913 44.9267 29.106C44.4453 28.308 44.2047 27.4023 44.2047 26.389C44.2047 25.363 44.4453 24.4573 44.9267 23.672C45.4207 22.874 46.0857 22.2533 46.9217 21.81C47.7703 21.354 48.7393 21.126 49.8287 21.126C50.9053 21.126 51.868 21.354 52.7167 21.81C53.5653 22.2533 54.2303 22.8677 54.7117 23.653C55.193 24.4383 55.4337 25.3503 55.4337 26.389C55.4337 27.4023 55.193 28.308 54.7117 29.106C54.2303 29.8913 53.5653 30.512 52.7167 30.968C51.868 31.424 50.9053 31.652 49.8287 31.652ZM49.8287 29.22C50.3227 29.22 50.766 29.106 51.1587 28.878C51.5513 28.65 51.8617 28.327 52.0897 27.909C52.3177 27.4783 52.4317 26.9717 52.4317 26.389C52.4317 25.7937 52.3177 25.287 52.0897 24.869C51.8617 24.451 51.5513 24.128 51.1587 23.9C50.766 23.672 50.3227 23.558 49.8287 23.558C49.3347 23.558 48.8913 23.672 48.4987 23.9C48.106 24.128 47.7893 24.451 47.5487 24.869C47.3207 25.287 47.2067 25.7937 47.2067 26.389C47.2067 26.9717 47.3207 27.4783 47.5487 27.909C47.7893 28.327 48.106 28.65 48.4987 28.878C48.8913 29.106 49.3347 29.22 49.8287 29.22ZM58.5549 31.5V21.278H61.3859V24.166L60.9869 23.33C61.2909 22.608 61.7785 22.0633 62.4499 21.696C63.1212 21.316 63.9382 21.126 64.9009 21.126V23.862C64.7742 23.8493 64.6602 23.843 64.5589 23.843C64.4575 23.8303 64.3499 23.824 64.2359 23.824C63.4252 23.824 62.7665 24.0583 62.2599 24.527C61.7659 24.983 61.5189 25.6987 61.5189 26.674V31.5H58.5549ZM72.9315 31.652C71.7662 31.652 70.7402 31.424 69.8535 30.968C68.9795 30.512 68.3018 29.8913 67.8205 29.106C67.3392 28.308 67.0985 27.4023 67.0985 26.389C67.0985 25.363 67.3328 24.4573 67.8015 23.672C68.2828 22.874 68.9352 22.2533 69.7585 21.81C70.5818 21.354 71.5128 21.126 72.5515 21.126C73.5522 21.126 74.4515 21.3413 75.2495 21.772C76.0602 22.19 76.6998 22.798 77.1685 23.596C77.6372 24.3813 77.8715 25.325 77.8715 26.427C77.8715 26.541 77.8652 26.674 77.8525 26.826C77.8398 26.9653 77.8272 27.0983 77.8145 27.225H69.5115V25.496H76.2565L75.1165 26.009C75.1165 25.477 75.0088 25.0147 74.7935 24.622C74.5782 24.2293 74.2805 23.9253 73.9005 23.71C73.5205 23.482 73.0772 23.368 72.5705 23.368C72.0638 23.368 71.6142 23.482 71.2215 23.71C70.8415 23.9253 70.5438 24.2357 70.3285 24.641C70.1132 25.0337 70.0055 25.5023 70.0055 26.047V26.503C70.0055 27.0603 70.1258 27.5543 70.3665 27.985C70.6198 28.403 70.9682 28.726 71.4115 28.954C71.8675 29.1693 72.3995 29.277 73.0075 29.277C73.5522 29.277 74.0272 29.1947 74.4325 29.03C74.8505 28.8653 75.2305 28.6183 75.5725 28.289L77.1495 29.999C76.6808 30.531 76.0918 30.9427 75.3825 31.234C74.6732 31.5127 73.8562 31.652 72.9315 31.652Z" fill="url(#paint0_linear_151_41)"/>
<path d="M6.56556 16.9661L19.3715 16.9488L19.3825 21.7368L6.57651 21.7541L6.56556 16.9661ZM7.0466 27.9094L21.5246 27.8899L21.5359 32.8299L0.939907 32.8577L0.879039 6.25774L20.981 6.2306L20.9923 11.1706L7.00834 11.1895L7.0466 27.9094Z" fill="white"/>
<path d="M31.7157 6.626C32.5264 6.626 33.2484 6.79067 33.8817 7.12C34.5277 7.43667 35.0344 7.93067 35.4017 8.602C35.769 9.26067 35.9527 10.1093 35.9527 11.148V17H32.9887V11.604C32.9887 10.7807 32.805 10.1727 32.4377 9.78C32.083 9.38733 31.5764 9.191 30.9177 9.191C30.449 9.191 30.0247 9.29233 29.6447 9.495C29.2774 9.685 28.986 9.98267 28.7707 10.388C28.568 10.7933 28.4667 11.3127 28.4667 11.946V17H25.5027V6.778H28.3337V9.609L27.8017 8.754C28.169 8.07 28.6947 7.54433 29.3787 7.177C30.0627 6.80967 30.8417 6.626 31.7157 6.626ZM45.4966 17.152C44.3313 17.152 43.3053 16.924 42.4186 16.468C41.5446 16.012 40.867 15.3913 40.3856 14.606C39.9043 13.808 39.6636 12.9023 39.6636 11.889C39.6636 10.863 39.898 9.95733 40.3666 9.172C40.848 8.374 41.5003 7.75333 42.3236 7.31C43.147 6.854 44.078 6.626 45.1166 6.626C46.1173 6.626 47.0166 6.84133 47.8146 7.272C48.6253 7.69 49.265 8.298 49.7336 9.096C50.2023 9.88133 50.4366 10.825 50.4366 11.927C50.4366 12.041 50.4303 12.174 50.4176 12.326C50.405 12.4653 50.3923 12.5983 50.3796 12.725H42.0766V10.996H48.8216L47.6816 11.509C47.6816 10.977 47.574 10.5147 47.3586 10.122C47.1433 9.72933 46.8456 9.42533 46.4656 9.21C46.0856 8.982 45.6423 8.868 45.1356 8.868C44.629 8.868 44.1793 8.982 43.7866 9.21C43.4066 9.42533 43.109 9.73567 42.8936 10.141C42.6783 10.5337 42.5706 11.0023 42.5706 11.547V12.003C42.5706 12.5603 42.691 13.0543 42.9316 13.485C43.185 13.903 43.5333 14.226 43.9766 14.454C44.4326 14.6693 44.9646 14.777 45.5726 14.777C46.1173 14.777 46.5923 14.6947 46.9976 14.53C47.4156 14.3653 47.7956 14.1183 48.1376 13.789L49.7146 15.499C49.246 16.031 48.657 16.4427 47.9476 16.734C47.2383 17.0127 46.4213 17.152 45.4966 17.152ZM54.12 17V6.778H56.951V9.666L56.552 8.83C56.856 8.108 57.3436 7.56333 58.015 7.196C58.6863 6.816 59.5033 6.626 60.466 6.626V9.362C60.3393 9.34933 60.2253 9.343 60.124 9.343C60.0226 9.33033 59.915 9.324 59.801 9.324C58.9903 9.324 58.3316 9.55833 57.825 10.027C57.331 10.483 57.084 11.1987 57.084 12.174V17H54.12ZM68.6711 20.838C67.7085 20.838 66.7775 20.7177 65.8781 20.477C64.9915 20.249 64.2505 19.9007 63.6551 19.432L64.8331 17.304C65.2638 17.6587 65.8085 17.9373 66.4671 18.14C67.1385 18.3553 67.7971 18.463 68.4431 18.463C69.4945 18.463 70.2545 18.2287 70.7231 17.76C71.2045 17.2913 71.4451 16.5947 71.4451 15.67V14.131L71.6351 11.566L71.5971 8.982V6.778H74.4091V15.29C74.4091 17.19 73.9151 18.5897 72.9271 19.489C71.9391 20.3883 70.5205 20.838 68.6711 20.838ZM68.2151 16.506C67.2651 16.506 66.4038 16.3033 65.6311 15.898C64.8711 15.48 64.2568 14.9037 63.7881 14.169C63.3321 13.4217 63.1041 12.554 63.1041 11.566C63.1041 10.5653 63.3321 9.69767 63.7881 8.963C64.2568 8.21567 64.8711 7.63933 65.6311 7.234C66.4038 6.82867 67.2651 6.626 68.2151 6.626C69.0765 6.626 69.8365 6.80333 70.4951 7.158C71.1538 7.5 71.6668 8.03833 72.0341 8.773C72.4015 9.495 72.5851 10.426 72.5851 11.566C72.5851 12.6933 72.4015 13.6243 72.0341 14.359C71.6668 15.081 71.1538 15.6193 70.4951 15.974C69.8365 16.3287 69.0765 16.506 68.2151 16.506ZM68.8041 14.074C69.3235 14.074 69.7858 13.9727 70.1911 13.77C70.5965 13.5547 70.9131 13.257 71.1411 12.877C71.3691 12.497 71.4831 12.06 71.4831 11.566C71.4831 11.0593 71.3691 10.6223 71.1411 10.255C70.9131 9.875 70.5965 9.58367 70.1911 9.381C69.7858 9.16567 69.3235 9.058 68.8041 9.058C68.2848 9.058 67.8225 9.16567 67.4171 9.381C67.0118 9.58367 66.6888 9.875 66.4481 10.255C66.2201 10.6223 66.1061 11.0593 66.1061 11.566C66.1061 12.06 66.2201 12.497 66.4481 12.877C66.6888 13.257 67.0118 13.5547 67.4171 13.77C67.8225 13.9727 68.2848 14.074 68.8041 14.074ZM80.1698 20.838C79.6378 20.838 79.1122 20.7557 78.5928 20.591C78.0735 20.4263 77.6492 20.1983 77.3198 19.907L78.4028 17.798C78.6308 18.0007 78.8905 18.159 79.1818 18.273C79.4858 18.387 79.7835 18.444 80.0748 18.444C80.4928 18.444 80.8222 18.3427 81.0628 18.14C81.3162 17.95 81.5442 17.627 81.7468 17.171L82.2788 15.917L82.5068 15.594L86.1738 6.778H89.0238L84.4068 17.627C84.0775 18.4503 83.6975 19.0963 83.2668 19.565C82.8488 20.0337 82.3802 20.363 81.8608 20.553C81.3542 20.743 80.7905 20.838 80.1698 20.838ZM81.9178 17.399L77.3578 6.778H80.4168L83.9508 15.328L81.9178 17.399Z" fill="white"/>
<defs>
<linearGradient id="paint0_linear_151_41" x1="23" y1="22.1667" x2="79" y2="22.1667" gradientUnits="userSpaceOnUse">
<stop stop-color="#5E8CFF"/>
<stop offset="1" stop-color="#E59FE0"/>
</linearGradient>
</defs>
</svg>
